Coordinates
version=1
nRows=8
nColumns=33
inDegrees=yes

Units are S.I. units (second, meters, Newtons, ...)
Angles are in degrees.

endheader
time	ground_thorax_rot_x	ground_thorax_rot_y	ground_thorax_rot_z	ground_thorax_tx	ground_thorax_ty	ground_thorax_tz	clav_prot_r	clav_elev_r	scapula_abduction_r	scapula_elevation_r	scapula_upward_rot_r	scapula_winging_r	shoulder_elv_r	plane_of_elev_r	axial_rot_r	elbow_flexion_r	pro_sup_r	wrist_flex_r	wrist_dev_r	clav_prot_l	clav_elev_l	scapula_abduction_l	scapula_elevation_l	scapula_upward_rot_l	scapula_winging_l	shoulder_elv_l	plane_of_elev_l	axial_rot_l	elbow_flexion_l	pro_sup_l	wrist_flex_l	wrist_dev_l
     10.25000000	     39.85918778	     14.01603599	     16.36773151	   -178.37985968	    816.41953367	      5.03910763	     13.91649569	     41.86655674	     41.56289448	     45.00000000	    -24.75580255	  -2610.06333134	  -1375.32137550	     32.84015854	     45.74714801	   1812.96489739	    388.59152505	     19.53602883	      6.80472130	     -3.45940402	    -45.00000000	    -45.00000000	     45.00000000	     20.97717851	   2273.53650906	  -4595.51381756	     13.64886807	    179.99999979	   1086.47987795	   -146.40433142	     10.53268215	    -17.11647490
     10.26000000	     39.88111994	     14.00634893	     16.30315945	   -180.27799073	    817.46433127	      5.03079160	     13.79515839	     41.78875357	     41.47353900	     45.00000000	    -24.82554015	  -2610.16238516	  -1375.18209842	     32.83479752	     45.66495084	   1812.97130278	    388.48946432	     19.55117229	      6.74185152	     -3.30356934	    -45.00000000	    -45.00000000	     45.00000000	     20.69428637	   2273.46707075	  -4595.31412062	     13.66711771	    179.99999979	   1086.39499987	   -146.70463466	     10.61393888	    -17.19811325
     10.27000000	     39.90699033	     13.99230329	     16.24794877	   -182.14863854	    818.50991644	      5.02568717	     13.71402364	     41.66379666	     41.35773852	     45.00000000	    -24.99060865	  -2610.26035571	  -1374.98368502	     32.87274688	     45.55105117	   1813.04048775	    388.38243210	     19.57544590	      6.66642399	     -3.15000689	    -45.00000000	    -45.00000000	     45.00000000	     20.43433200	   2273.39742844	  -4595.10699519	     13.69193303	    179.99999979	   1086.37730048	   -146.98295116	     10.68671662	    -17.25208599
     10.28000000	     39.93996628	     13.96905989	     16.21053964	   -183.99848041	    819.55730929	      5.02204949	     13.63311241	     41.58547055	     41.23094090	     45.00000000	    -25.17637031	  -2610.29136729	  -1374.84569587	     32.89420795	     45.42749483	   1813.03247336	    388.29423316	     19.58707424	      6.61024394	     -3.00493942	    -45.00000000	    -45.00000000	     45.00000000	     20.18975286	   2273.36691132	  -4594.92940636	     13.68589602	    179.99999979	   1086.34825522	   -147.24786358	     10.75878332	    -17.31503448
     10.29000000	     39.94124521	     14.03225289	     16.25174835	   -185.82270045	    820.59907533	      5.01832441	     13.60591831	     41.52163956	     41.10037302	     45.00000000	    -25.43089615	  -2610.33530934	  -1374.60802260	     32.98359730	     45.37600174	   1813.04469794	    388.21093915	     19.59447878	      6.55219549	     -2.87148224	    -45.00000000	    -44.98398115	     45.00000000	     19.86340259	   2273.30140905	  -4594.71008483	     13.70720614	    179.99999979	   1086.32471339	   -147.52009342	     10.80761456	    -17.35679512
     10.30000000	     40.02232567	     13.73905081	     16.03666833	   -187.63039452	    821.63483776	      5.01359456	     13.47164027	     41.33667793	     41.14582361	     45.00000000	    -25.36415103	  -2610.44511186	  -1374.57496025	     33.05154488	     45.23271072	   1812.98345690	    388.14319607	     19.60393017	      6.48398262	     -2.90368636	    -45.00000000	    -44.68049297	     45.00000000	     19.38401518	   2273.02759226	  -4594.59400023	     13.67173301	    179.99999979	   1086.17199573	   -147.76092033	     10.90204254	    -17.48462336
     10.31000000	     40.05935144	     13.68698166	     16.01141037	   -189.42516595	    822.66081040	      5.00757905	     13.43242584	     41.28469918	     41.03329826	     45.00000000	    -25.53134679	  -2610.48920572	  -1374.42612663	     33.12966145	     45.26688919	   1812.93712779	    388.09438539	     19.59657359	      6.42090931	     -2.83689257	    -45.00000000	    -44.41881173	     45.00000000	     19.00475229	   2272.87840258	  -4594.46059453	     13.69685101	    179.99999979	   1086.17868703	   -147.97625078	     10.95960202	    -17.53891445
     10.32000000	     40.07938151	     13.65357672	     16.02047748	   -191.20086025	    823.66927209	      5.00045840	     13.39389079	     41.22564115	     40.96337847	     45.00000000	    -25.73353269	  -2610.53659351	  -1374.26956341	     33.16133841	     45.25519582	   1812.94718237	    388.03020406	     19.60729158	      6.36199246	     -2.77109811	    -45.00000000	    -44.20682984	     45.00000000	     18.60766256	   2272.73751728	  -4594.29639832	     13.69887598	    179.99999979	   1086.16104326	   -148.19555463	     11.00894290	    -17.59474226
